<svg width="542" height="236" viewBox="0 0 542 236" fill="none" xmlns="http://www.w3.org/2000/svg">
<path d="M54.0291 30.0395L47.1464 34.589C46.0965 32.4892 44.3467 30.1561 42.5969 28.7562C41.0803 27.5897 38.2806 26.0731 33.8477 26.0731C26.1484 26.0731 20.7822 30.856 20.7822 38.0887C20.7822 41.1218 21.5988 42.8716 23.6986 44.8548C26.0317 47.1879 28.9481 48.4711 31.8645 49.7543L39.3305 53.0207C43.8801 55.0038 48.0797 57.1036 51.3461 60.37C55.3124 64.3363 56.9456 68.8859 56.9456 74.4854C56.9456 88.8341 46.3299 98.3999 32.3311 98.3999C27.1983 98.3999 20.7822 97.35 15.416 92.1004C11.5664 88.3675 9.23324 83.0013 8.18334 78.335L16.5826 76.0019C17.1659 80.0849 19.0323 83.5846 21.2488 85.9177C24.6318 89.3007 28.4815 90.234 32.4478 90.234C43.0635 90.234 48.0797 82.6513 48.0797 74.8354C48.0797 71.3357 47.0298 68.3026 44.23 65.7362C42.0136 63.6364 38.9805 62.2365 34.8976 60.37L27.8982 57.1036C24.8651 55.7038 21.0155 54.0706 17.5158 50.6876C14.1328 47.4212 12.1496 43.8049 12.1496 37.9721C12.1496 25.9565 21.3655 17.9072 33.9643 17.9072C38.7472 17.9072 42.5969 18.8405 46.4465 21.4069C49.5962 23.5067 52.2793 26.6564 54.0291 30.0395ZM100.759 80.7848L107.758 84.6345C106.358 87.3176 104.259 90.234 101.809 92.4504C97.376 96.4167 91.8931 98.3999 85.7104 98.3999C74.0448 98.3999 61.7959 91.0505 61.7959 73.0855C61.7959 58.6202 70.6617 47.4212 85.2437 47.4212C94.6929 47.4212 100.642 52.0874 103.559 56.2871C106.592 60.6033 108.342 68.0693 108.108 74.4854H70.4284C70.5451 84.5178 77.4278 90.9339 85.827 90.9339C89.7933 90.9339 92.943 89.7673 95.7428 87.4342C97.9592 85.5677 99.7091 83.1179 100.759 80.7848ZM71.0117 67.486H99.4758C98.0759 59.9034 92.3598 54.8872 85.2437 54.8872C78.1277 54.8872 72.2949 60.2534 71.0117 67.486ZM132.191 56.2871H123.792V97H115.393V56.2871H110.26V48.5878H115.393V31.0894H123.792V48.5878H132.191V56.2871ZM164.069 48.5878V76.8185C164.069 80.2015 164.069 84.1678 166.403 87.2009C167.686 88.8341 170.252 90.9339 174.918 90.9339C179.585 90.9339 182.151 88.8341 183.434 87.2009C185.767 84.1678 185.767 80.2015 185.767 76.8185V48.5878H194.167V77.7518C194.167 83.7012 193.583 88.1341 189.734 92.3338C185.418 96.8833 179.701 98.3999 174.918 98.3999C170.136 98.3999 164.419 96.8833 160.103 92.3338C156.254 88.1341 155.67 83.7012 155.67 77.7518V48.5878H164.069ZM212.577 90.234V123.831H204.178V48.5878H212.577V55.3538C218.294 48.2378 225.643 47.4212 229.143 47.4212C244.308 47.4212 252.707 60.02 252.707 73.0855C252.707 86.3843 244.191 98.3999 229.493 98.3999C221.677 98.3999 216.194 94.9002 212.577 90.234ZM228.326 90.9339C238.125 90.9339 244.075 82.768 244.075 73.0855C244.075 61.1866 236.025 54.8872 228.209 54.8872C220.393 54.8872 212.111 61.3033 212.111 72.9689C212.111 82.8846 218.41 90.9339 228.326 90.9339Z" fill="black"/>
<path d="M52.1028 141.227L45.2201 145.776C44.1702 143.676 42.4203 141.343 40.6705 139.943C39.154 138.777 36.3542 137.26 31.9213 137.26C24.222 137.26 18.8558 142.043 18.8558 149.276C18.8558 152.309 19.6724 154.059 21.7722 156.042C24.1053 158.375 27.0217 159.658 29.9381 160.942L37.4041 164.208C41.9537 166.191 46.1533 168.291 49.4197 171.557C53.386 175.524 55.0192 180.073 55.0192 185.673C55.0192 200.021 44.4035 209.587 30.4048 209.587C25.2719 209.587 18.8558 208.537 13.4896 203.288C9.63999 199.555 7.30687 194.189 6.25696 189.522L14.6562 187.189C15.2395 191.272 17.106 194.772 19.3224 197.105C22.7055 200.488 26.5551 201.421 30.5214 201.421C41.1371 201.421 46.1533 193.839 46.1533 186.023C46.1533 182.523 45.1034 179.49 42.3037 176.923C40.0872 174.824 37.0541 173.424 32.9712 171.557L25.9718 168.291C22.9388 166.891 19.0891 165.258 15.5894 161.875C12.2064 158.608 10.2233 154.992 10.2233 149.159C10.2233 137.144 19.4391 129.094 32.0379 129.094C36.8208 129.094 40.6705 130.028 44.5201 132.594C47.6698 134.694 50.3529 137.844 52.1028 141.227ZM82.2675 167.474H73.8682V208.187H65.469V167.474H60.3361V159.775H65.469V142.277H73.8682V159.775H82.2675V167.474ZM97.0992 235.018L112.498 203.638L90.2165 159.775H99.7823L116.931 194.422L132.679 159.775H142.012L106.432 235.018H97.0992ZM145.04 123.145H153.439V208.187H145.04V123.145ZM199.403 191.972L206.402 195.822C205.002 198.505 202.903 201.421 200.453 203.638C196.02 207.604 190.537 209.587 184.354 209.587C172.689 209.587 160.44 202.238 160.44 184.273C160.44 169.807 169.306 158.608 183.888 158.608C193.337 158.608 199.286 163.275 202.203 167.474C205.236 171.791 206.985 179.257 206.752 185.673H169.072C169.189 195.705 176.072 202.121 184.471 202.121C188.437 202.121 191.587 200.955 194.387 198.621C196.603 196.755 198.353 194.305 199.403 191.972ZM169.656 178.673H198.12C196.72 171.091 191.004 166.074 183.888 166.074C176.772 166.074 170.939 171.441 169.656 178.673ZM278.944 141.227L272.061 145.776C271.011 143.676 269.262 141.343 267.512 139.943C265.995 138.777 263.195 137.26 258.763 137.26C251.063 137.26 245.697 142.043 245.697 149.276C245.697 152.309 246.514 154.059 248.613 156.042C250.947 158.375 253.863 159.658 256.779 160.942L264.245 164.208C268.795 166.191 272.995 168.291 276.261 171.557C280.227 175.524 281.86 180.073 281.86 185.673C281.86 200.021 271.245 209.587 257.246 209.587C252.113 209.587 245.697 208.537 240.331 203.288C236.481 199.555 234.148 194.189 233.098 189.522L241.497 187.189C242.081 191.272 243.947 194.772 246.164 197.105C249.547 200.488 253.396 201.421 257.363 201.421C267.978 201.421 272.995 193.839 272.995 186.023C272.995 182.523 271.945 179.49 269.145 176.923C266.928 174.824 263.895 173.424 259.812 171.557L252.813 168.291C249.78 166.891 245.93 165.258 242.431 161.875C239.048 158.608 237.065 154.992 237.065 149.159C237.065 137.144 246.28 129.094 258.879 129.094C263.662 129.094 267.512 130.028 271.361 132.594C274.511 134.694 277.194 137.844 278.944 141.227ZM326.84 166.658V159.775H335.24V208.187H326.84V201.421C324.041 205.038 318.791 209.587 310.275 209.587C298.026 209.587 286.711 200.955 286.711 183.923C286.711 167.241 297.91 158.608 310.275 158.608C319.608 158.608 324.624 163.741 326.84 166.658ZM311.208 166.074C302.926 166.074 295.343 172.141 295.343 183.923C295.343 194.305 301.176 202.121 311.208 202.121C321.474 202.121 327.307 193.605 327.307 184.039C327.307 171.557 318.674 166.074 311.208 166.074ZM345.315 208.187V159.775H353.714V164.908C356.397 160.942 360.597 158.608 365.73 158.608C374.479 158.608 377.979 164.791 378.912 166.424C383.578 159.075 390.227 158.608 393.494 158.608C407.843 158.608 409.242 170.624 409.242 177.507V208.187H400.843V178.79C400.843 173.307 400.143 166.074 392.211 166.074C382.528 166.074 381.478 175.407 381.478 181.24V208.187H373.079V179.49C373.079 176.107 373.196 166.074 364.33 166.074C354.764 166.074 353.714 175.99 353.714 181.823V208.187H345.315ZM427.741 201.421V235.018H419.341V159.775H427.741V166.541C433.457 159.425 440.806 158.608 444.306 158.608C459.471 158.608 467.87 171.207 467.87 184.273C467.87 197.572 459.354 209.587 444.656 209.587C436.84 209.587 431.357 206.087 427.741 201.421ZM443.489 202.121C453.288 202.121 459.238 193.955 459.238 184.273C459.238 172.374 451.188 166.074 443.372 166.074C435.557 166.074 427.274 172.491 427.274 184.156C427.274 194.072 433.573 202.121 443.489 202.121ZM474.912 123.145H483.312V208.187H474.912V123.145ZM529.275 191.972L536.274 195.822C534.874 198.505 532.775 201.421 530.325 203.638C525.892 207.604 520.409 209.587 514.226 209.587C502.561 209.587 490.312 202.238 490.312 184.273C490.312 169.807 499.178 158.608 513.76 158.608C523.209 158.608 529.158 163.275 532.075 167.474C535.108 171.791 536.858 179.257 536.624 185.673H498.944C499.061 195.705 505.944 202.121 514.343 202.121C518.309 202.121 521.459 200.955 524.259 198.621C526.475 196.755 528.225 194.305 529.275 191.972ZM499.528 178.673H527.992C526.592 171.091 520.876 166.074 513.76 166.074C506.644 166.074 500.811 171.441 499.528 178.673Z" fill="black"/>
</svg>
