<svg width="311" height="129" viewBox="0 0 311 129" fill="none" xmlns="http://www.w3.org/2000/svg">
<path d="M31.01 71.82L26.88 74.55C26.25 73.29 25.2 71.89 24.15 71.05C23.24 70.35 21.56 69.44 18.9 69.44C14.28 69.44 11.06 72.31 11.06 76.65C11.06 78.47 11.55 79.52 12.81 80.71C14.21 82.11 15.96 82.88 17.71 83.65L22.19 85.61C24.92 86.8 27.44 88.06 29.4 90.02C31.78 92.4 32.76 95.13 32.76 98.49C32.76 107.1 26.39 112.84 17.99 112.84C14.91 112.84 11.06 112.21 7.84 109.06C5.53 106.82 4.13 103.6 3.5 100.8L8.54 99.4C8.89 101.85 10.01 103.95 11.34 105.35C13.37 107.38 15.68 107.94 18.06 107.94C24.43 107.94 27.44 103.39 27.44 98.7C27.44 96.6 26.81 94.78 25.13 93.24C23.8 91.98 21.98 91.14 19.53 90.02L15.33 88.06C13.51 87.22 11.2 86.24 9.1 84.21C7.07 82.25 5.88 80.08 5.88 76.58C5.88 69.37 11.41 64.54 18.97 64.54C21.84 64.54 24.15 65.1 26.46 66.64C28.35 67.9 29.96 69.79 31.01 71.82ZM49.8105 87.57H44.7705V112H39.7305V87.57H36.6505V82.95H39.7305V72.45H44.7705V82.95H49.8105V87.57ZM55.8912 128.1L65.1312 109.27L51.7612 82.95H57.5012L67.7912 103.74L77.2412 82.95H82.8412L61.4912 128.1H55.8912ZM84.6584 60.97H89.6984V112H84.6584V60.97ZM117.279 102.27L121.479 104.58C120.639 106.19 119.379 107.94 117.909 109.27C115.249 111.65 111.959 112.84 108.249 112.84C101.249 112.84 93.899 108.43 93.899 97.65C93.899 88.97 99.219 82.25 107.969 82.25C113.639 82.25 117.209 85.05 118.959 87.57C120.779 90.16 121.829 94.64 121.689 98.49H99.079C99.149 104.51 103.279 108.36 108.319 108.36C110.699 108.36 112.589 107.66 114.269 106.26C115.599 105.14 116.649 103.67 117.279 102.27ZM99.429 94.29H116.509C115.669 89.74 112.239 86.73 107.969 86.73C103.699 86.73 100.199 89.95 99.429 94.29ZM154.858 87.5L150.728 89.67C150.028 87.99 148.558 86.73 146.668 86.73C144.848 86.73 143.168 87.78 143.168 90.02C143.168 92.12 144.568 92.75 147.858 94.15C152.058 95.9 154.018 97.23 155.138 98.63C156.398 100.17 156.678 101.71 156.678 103.32C156.678 109.41 152.268 112.84 146.668 112.84C145.478 112.84 138.968 112.7 136.518 105.42L140.858 103.6C141.418 105.14 143.098 108.36 146.738 108.36C150.028 108.36 151.498 105.91 151.498 103.74C151.498 101.01 149.538 100.1 146.808 98.91C143.308 97.37 141.068 96.25 139.738 94.64C138.618 93.24 138.408 91.84 138.408 90.37C138.408 85.26 141.978 82.25 146.878 82.25C148.418 82.25 152.548 82.53 154.858 87.5ZM182.127 87.08V82.95H187.167V112H182.127V107.94C180.447 110.11 177.297 112.84 172.187 112.84C164.837 112.84 158.047 107.66 158.047 97.44C158.047 87.43 164.767 82.25 172.187 82.25C177.787 82.25 180.797 85.33 182.127 87.08ZM172.747 86.73C167.777 86.73 163.227 90.37 163.227 97.44C163.227 103.67 166.727 108.36 172.747 108.36C178.907 108.36 182.407 103.25 182.407 97.51C182.407 90.02 177.227 86.73 172.747 86.73ZM193.213 112V82.95H198.253V86.03C199.863 83.65 202.383 82.25 205.463 82.25C210.713 82.25 212.813 85.96 213.373 86.94C216.173 82.53 220.163 82.25 222.123 82.25C230.733 82.25 231.573 89.46 231.573 93.59V112H226.533V94.36C226.533 91.07 226.113 86.73 221.353 86.73C215.543 86.73 214.913 92.33 214.913 95.83V112H209.873V94.78C209.873 92.75 209.943 86.73 204.623 86.73C198.883 86.73 198.253 92.68 198.253 96.18V112H193.213ZM242.673 107.94V128.1H237.633V82.95H242.673V87.01C246.103 82.74 250.513 82.25 252.613 82.25C261.713 82.25 266.753 89.81 266.753 97.65C266.753 105.63 261.643 112.84 252.823 112.84C248.133 112.84 244.843 110.74 242.673 107.94ZM252.123 108.36C258.003 108.36 261.573 103.46 261.573 97.65C261.573 90.51 256.743 86.73 252.053 86.73C247.363 86.73 242.393 90.58 242.393 97.58C242.393 103.53 246.173 108.36 252.123 108.36ZM270.979 60.97H276.019V112H270.979V60.97ZM303.599 102.27L307.799 104.58C306.959 106.19 305.699 107.94 304.229 109.27C301.569 111.65 298.279 112.84 294.569 112.84C287.569 112.84 280.219 108.43 280.219 97.65C280.219 88.97 285.539 82.25 294.289 82.25C299.959 82.25 303.529 85.05 305.279 87.57C307.099 90.16 308.149 94.64 308.009 98.49H285.399C285.469 104.51 289.599 108.36 294.639 108.36C297.019 108.36 298.909 107.66 300.589 106.26C301.919 105.14 302.969 103.67 303.599 102.27ZM285.749 94.29H302.829C301.989 89.74 298.559 86.73 294.289 86.73C290.019 86.73 286.519 89.95 285.749 94.29Z" fill="black"/>
<path d="M31.01 7.82L26.88 10.55C26.25 9.29 25.2 7.89 24.15 7.05C23.24 6.35 21.56 5.44 18.9 5.44C14.28 5.44 11.06 8.31 11.06 12.65C11.06 14.47 11.55 15.52 12.81 16.71C14.21 18.11 15.96 18.88 17.71 19.65L22.19 21.61C24.92 22.8 27.44 24.06 29.4 26.02C31.78 28.4 32.76 31.13 32.76 34.49C32.76 43.1 26.39 48.84 17.99 48.84C14.91 48.84 11.06 48.21 7.84 45.06C5.53 42.82 4.13 39.6 3.5 36.8L8.54 35.4C8.89 37.85 10.01 39.95 11.34 41.35C13.37 43.38 15.68 43.94 18.06 43.94C24.43 43.94 27.44 39.39 27.44 34.7C27.44 32.6 26.81 30.78 25.13 29.24C23.8 27.98 21.98 27.14 19.53 26.02L15.33 24.06C13.51 23.22 11.2 22.24 9.1 20.21C7.07 18.25 5.88 16.08 5.88 12.58C5.88 5.37 11.41 0.539998 18.97 0.539998C21.84 0.539998 24.15 1.1 26.46 2.64C28.35 3.9 29.96 5.79 31.01 7.82ZM59.0505 38.27L63.2505 40.58C62.4105 42.19 61.1505 43.94 59.6805 45.27C57.0205 47.65 53.7305 48.84 50.0205 48.84C43.0205 48.84 35.6705 44.43 35.6705 33.65C35.6705 24.97 40.9905 18.25 49.7405 18.25C55.4105 18.25 58.9805 21.05 60.7305 23.57C62.5505 26.16 63.6005 30.64 63.4605 34.49H40.8505C40.9205 40.51 45.0505 44.36 50.0905 44.36C52.4705 44.36 54.3605 43.66 56.0405 42.26C57.3705 41.14 58.4205 39.67 59.0505 38.27ZM41.2005 30.29H58.2805C57.4405 25.74 54.0105 22.73 49.7405 22.73C45.4705 22.73 41.9705 25.95 41.2005 30.29ZM77.9116 23.57H72.8716V48H67.8316V23.57H64.7516V18.95H67.8316V8.45H72.8716V18.95H77.9116V23.57ZM97.0402 18.95V35.89C97.0402 37.92 97.0402 40.3 98.4402 42.12C99.2102 43.1 100.75 44.36 103.55 44.36C106.35 44.36 107.89 43.1 108.66 42.12C110.06 40.3 110.06 37.92 110.06 35.89V18.95H115.1V36.45C115.1 40.02 114.75 42.68 112.44 45.2C109.85 47.93 106.42 48.84 103.55 48.84C100.68 48.84 97.2502 47.93 94.6602 45.2C92.3502 42.68 92.0002 40.02 92.0002 36.45V18.95H97.0402ZM126.148 43.94V64.1H121.108V18.95H126.148V23.01C129.578 18.74 133.988 18.25 136.088 18.25C145.188 18.25 150.228 25.81 150.228 33.65C150.228 41.63 145.118 48.84 136.298 48.84C131.608 48.84 128.318 46.74 126.148 43.94ZM135.598 44.36C141.478 44.36 145.048 39.46 145.048 33.65C145.048 26.51 140.218 22.73 135.528 22.73C130.838 22.73 125.868 26.58 125.868 33.58C125.868 39.53 129.648 44.36 135.598 44.36Z" fill="black"/>
</svg>
